<?xml version="1.0" encoding="UTF-8"?>
<svg xmlns="http://www.w3.org/2000/svg" viewBox="0 0 384 192" role="img" aria-labelledby="title desc">
  <title id="title">Gravebound Core item icon source sheet</title>
  <desc id="desc">Eighteen editable sixty-four-pixel vector icons for the Core item catalog.</desc>
  <defs>
    <linearGradient id="iron" x1="0" y1="0" x2="1" y2="1"><stop stop-color="#d6d0bd"/><stop offset="1" stop-color="#6d706f"/></linearGradient>
    <linearGradient id="brass" x1="0" y1="0" x2="1" y2="1"><stop stop-color="#e0b85f"/><stop offset="1" stop-color="#755021"/></linearGradient>
    <linearGradient id="salt" x1="0" y1="0" x2="1" y2="1"><stop stop-color="#d8f1ee"/><stop offset="1" stop-color="#648f93"/></linearGradient>
    <linearGradient id="ember" x1="0" y1="0" x2="1" y2="1"><stop stop-color="#ff9c48"/><stop offset="1" stop-color="#8b2d22"/></linearGradient>
    <style>
      .bg{fill:#17191d;stroke:#4b4540;stroke-width:2}.ink{fill:none;stroke:#e4dfd1;stroke-width:3;stroke-linecap:round;stroke-linejoin:round}.dark{fill:#282a2d;stroke:#111316;stroke-width:2}.wood{fill:#7d5838;stroke:#35271e;stroke-width:2}.root{fill:none;stroke:#876a45;stroke-width:4;stroke-linecap:round}.red{fill:#9e302f;stroke:#e06a54;stroke-width:2}.glow{fill:#f1c46b}.muted{fill:#777c78}.cloth{fill:#56534f;stroke:#aaa18f;stroke-width:2}
    </style>
    <symbol id="red-tonic" viewBox="0 0 64 64"><rect class="bg" x="2" y="2" width="60" height="60" rx="10"/><path class="ink" d="M25 11h14M28 11v9l-8 8v21c0 5 24 5 24 0V28l-8-8v-9"/><path class="red" d="M22 34h20v14c0 4-20 4-20 0z"/><path class="glow" d="M28 37h8v3h-8z"/></symbol>
    <symbol id="ashplate" viewBox="0 0 64 64"><rect class="bg" x="2" y="2" width="60" height="60" rx="10"/><path fill="url(#iron)" stroke="#252629" stroke-width="2" d="M17 15l10-5h10l10 5 5 13-7 5v20H19V33l-7-5z"/><path class="ink" d="M27 11l5 11 5-11M20 34h24M24 42h16"/></symbol>
    <symbol id="bellguard" viewBox="0 0 64 64"><rect class="bg" x="2" y="2" width="60" height="60" rx="10"/><path fill="url(#brass)" stroke="#2f2417" stroke-width="2" d="M17 15l10-5h10l10 5 5 13-7 5v20H19V33l-7-5z"/><path class="ink" d="M32 17c-6 0-9 5-9 10v8h18v-8c0-5-3-10-9-10zm-12 18h24M32 35v12"/><circle class="glow" cx="32" cy="48" r="3"/></symbol>
    <symbol id="gravehide" viewBox="0 0 64 64"><rect class="bg" x="2" y="2" width="60" height="60" rx="10"/><path class="cloth" d="M17 16l10-6h10l10 6 5 13-8 5 2 19H18l2-19-8-5z"/><path class="ink" d="M25 12l-2 12 9 4 9-4-2-12M20 40l8-4 8 5 9-4"/></symbol>
    <symbol id="pilgrim" viewBox="0 0 64 64"><rect class="bg" x="2" y="2" width="60" height="60" rx="10"/><path fill="#807363" stroke="#c1b49d" stroke-width="2" d="M17 16l10-6h10l10 6 5 13-8 5 3 19H17l3-19-8-5z"/><path class="ink" d="M25 12l7 13 7-13M19 37h26M25 37v16M39 37v16"/></symbol>
    <symbol id="rootweave" viewBox="0 0 64 64"><rect class="bg" x="2" y="2" width="60" height="60" rx="10"/><path fill="#4e4838" stroke="#9b8051" stroke-width="2" d="M17 16l10-6h10l10 6 5 13-8 5 2 19H18l2-19-8-5z"/><path class="root" d="M25 12c1 10 14 9 7 20s8 9 7 21M19 31c11 0 13 8 26 5"/></symbol>
    <symbol id="saltglass" viewBox="0 0 64 64"><rect class="bg" x="2" y="2" width="60" height="60" rx="10"/><path fill="url(#salt)" stroke="#31595d" stroke-width="2" d="M17 16l10-6h10l10 6 5 13-8 5 2 19H18l2-19-8-5z"/><path class="ink" d="M26 11l6 14 7-13M20 34l9 4 7-5 9 4M27 52l5-14 6 15"/></symbol>
    <symbol id="tin-bell" viewBox="0 0 64 64"><rect class="bg" x="2" y="2" width="60" height="60" rx="10"/><path fill="url(#iron)" stroke="#272a2c" stroke-width="2" d="M20 40h24l-4-6V24c0-6-3-10-8-10s-8 4-8 10v10z"/><path class="ink" d="M17 40h30M27 45c1 6 9 6 10 0M32 10V7"/></symbol>
    <symbol id="ash-chip" viewBox="0 0 64 64"><rect class="bg" x="2" y="2" width="60" height="60" rx="10"/><path fill="url(#ember)" stroke="#efaa58" stroke-width="2" d="M32 8l10 13-4 10 8 7-14 18-14-18 8-7-4-10z"/><path class="ink" d="M32 13l-3 15 7 5-4 17"/></symbol>
    <symbol id="salt-thread" viewBox="0 0 64 64"><rect class="bg" x="2" y="2" width="60" height="60" rx="10"/><path class="ink" d="M19 18c18-12 32 4 20 15S13 40 23 51M17 26c10 3 20 11 28 23"/><circle fill="url(#salt)" stroke="#31595d" stroke-width="2" cx="19" cy="18" r="7"/><circle fill="url(#salt)" stroke="#31595d" stroke-width="2" cx="44" cy="49" r="6"/></symbol>
    <symbol id="barbed-ledger" viewBox="0 0 64 64"><rect class="bg" x="2" y="2" width="60" height="60" rx="10"/><path class="wood" d="M17 11h31v42H17z"/><path class="ink" d="M24 18h17M24 25h17M24 32h12M24 39h15"/><path fill="#b8a486" d="M14 15h6v34h-6z"/><path class="ink" d="M13 20l8-4-8-4m0 17l8-4-8-4m0 17l8-4-8-4m0 17l8-4-8-4"/></symbol>
    <symbol id="cracked-lens" viewBox="0 0 64 64"><rect class="bg" x="2" y="2" width="60" height="60" rx="10"/><circle fill="url(#salt)" stroke="#d8f1ee" stroke-width="3" cx="29" cy="28" r="15"/><path class="ink" d="M40 39l12 12M29 14l-4 12 9 3-7 13"/></symbol>
    <symbol id="long-lens" viewBox="0 0 64 64"><rect class="bg" x="2" y="2" width="60" height="60" rx="10"/><path fill="url(#brass)" stroke="#2f2417" stroke-width="2" d="M12 26h37v12H12z"/><circle fill="url(#salt)" stroke="#d8f1ee" stroke-width="2" cx="49" cy="32" r="10"/><path class="ink" d="M14 23v18M24 26v12M49 25v14"/></symbol>
    <symbol id="slip-clasp" viewBox="0 0 64 64"><rect class="bg" x="2" y="2" width="60" height="60" rx="10"/><path fill="url(#brass)" stroke="#2f2417" stroke-width="3" d="M21 17h22v30H21z"/><path class="dark" d="M27 23h10v18H27z"/><path class="ink" d="M13 32h12m14 0h12M17 26l-6 6 6 6m30-12l6 6-6 6"/></symbol>
    <symbol id="grave-repeater" viewBox="0 0 64 64"><rect class="bg" x="2" y="2" width="60" height="60" rx="10"/><path class="wood" d="M13 29h37v8H13z"/><path class="ink" d="M9 16c18 4 34 4 46 0M9 48c18-4 34-4 46 0M10 16v32M54 16v32M31 25v19l9 6"/><path fill="url(#brass)" d="M23 24h18v6H23z"/></symbol>
    <symbol id="mourners-fan" viewBox="0 0 64 64"><rect class="bg" x="2" y="2" width="60" height="60" rx="10"/><path class="wood" d="M13 30h36v7H13z"/><path class="ink" d="M11 17c18 3 32 3 43 0M11 50c18-3 32-3 43 0M11 17v33M54 17v33M30 27v18l9 6M48 28l10-8m-10 12l12-2m-12 6l11 5"/></symbol>
    <symbol id="pilgrim-longbolt" viewBox="0 0 64 64"><rect class="bg" x="2" y="2" width="60" height="60" rx="10"/><path class="wood" d="M9 29h46v7H9z"/><path class="ink" d="M7 13c22 5 40 5 50 0M7 52c22-5 40-5 50 0M8 13v39M56 13v39M32 25v18l10 7"/><path fill="url(#salt)" d="M47 25l12 7-12 7z"/></symbol>
    <symbol id="pine-crossbow" viewBox="0 0 64 64"><rect class="bg" x="2" y="2" width="60" height="60" rx="10"/><path class="wood" d="M13 29h38v8H13z"/><path class="ink" d="M10 17c18 4 32 4 44 0M10 47c18-4 32-4 44 0M11 17v30M53 17v30M31 25v18l9 7"/><circle class="glow" cx="31" cy="33" r="3"/></symbol>
  </defs>
  <use href="#red-tonic" x="0" y="0" width="64" height="64"/><use href="#ashplate" x="64" y="0" width="64" height="64"/><use href="#bellguard" x="128" y="0" width="64" height="64"/><use href="#gravehide" x="192" y="0" width="64" height="64"/><use href="#pilgrim" x="256" y="0" width="64" height="64"/><use href="#rootweave" x="320" y="0" width="64" height="64"/>
  <use href="#saltglass" x="0" y="64" width="64" height="64"/><use href="#tin-bell" x="64" y="64" width="64" height="64"/><use href="#ash-chip" x="128" y="64" width="64" height="64"/><use href="#salt-thread" x="192" y="64" width="64" height="64"/><use href="#barbed-ledger" x="256" y="64" width="64" height="64"/><use href="#cracked-lens" x="320" y="64" width="64" height="64"/>
  <use href="#long-lens" x="0" y="128" width="64" height="64"/><use href="#slip-clasp" x="64" y="128" width="64" height="64"/><use href="#grave-repeater" x="128" y="128" width="64" height="64"/><use href="#mourners-fan" x="192" y="128" width="64" height="64"/><use href="#pilgrim-longbolt" x="256" y="128" width="64" height="64"/><use href="#pine-crossbow" x="320" y="128" width="64" height="64"/>
</svg>
